<svg height="16" width="16" xmlns="http://www.w3.org/2000/svg"><path d="M-17.334-17.6c.69 1.196.171 2.701 2.758 4.418 2.586 1.717-2.481 1.857-2.481 1.857S-19.06-14.628-18.954-15M-21.871-5.508C-20.613-7-19.67-6.122-17-6c2.67.122-.176-4-.176-4l-5.848 1.45.87 2.672M-26.727-11.608C-25.676-12.258-25-13.156-25-16c0-2.844 2.46 2.727 2.46 2.727l-1.883 3.343z" fill="#fc7f7f" paint-order="stroke fill markers"/><circle cx="-21" cy="-16" r="4" fill="#fc7f7f" paint-order="stroke fill markers"/><circle cx="-25" cy="-8" r="4" fill="#fc7f7f" paint-order="stroke fill markers"/><circle cx="-17" cy="-10" r="4" fill="#fc7f7f" paint-order="stroke fill markers"/><path d="M-17 3a4 4 0 00-4 4 4 4 0 00.043.5A4 4 0 00-21 8a4 4 0 004 4h8a4 4 0 004-4 4 4 0 00-.031-.498 4 4 0 000-.002 4 4 0 000-.002A4 4 0 00-5 7a4 4 0 00-4-4zm0 2h8a3 3 0 012.953 2.479A3 3 0 01-9 10h-8a3 3 0 01-2.95-2.5A3 3 0 01-17 5z" fill="#fc7f7f"/><path d="M-17 5a2 2 0 00-2 2v2a2 2 0 002 2 2 2 0 002-2V7a2 2 0 00-2-2zM-17 2V1a4 4 0 00-3.799 2.756A5 5 0 01-17 2zm1-2v1h-1v1h4zM-9 14v1a4 4 0 003.799-2.756A5 5 0 01-9 14zm-1 2v-1h1v-1h-4z" fill="#fc7f7f"/><path d="M-17 7a2 2 0 00-2 2 2 2 0 002 2 2 2 0 002-2 2 2 0 00-2-2zm0 1a1 1 0 011 1 1 1 0 01-1 1 1 1 0 01-1-1 1 1 0 011-1z" fill="#fff"/><path d="M-9 5a2 2 0 00-2 2v2a2 2 0 002 2 2 2 0 002-2V7a2 2 0 00-2-2z" fill="#fc7f7f"/><path d="M-9 7a2 2 0 00-2 2 2 2 0 002 2 2 2 0 002-2 2 2 0 00-2-2zm0 1a1 1 0 011 1 1 1 0 01-1 1 1 1 0 01-1-1 1 1 0 011-1z" fill="#fff"/><path d="M-17 5a4 4 0 00-4 4 4 4 0 004 4h8a4 4 0 004-4 4 4 0 00-4-4zm0 1h8a3 3 0 013 3 3 3 0 01-3 3h-8a3 3 0 01-3-3 3 3 0 013-3z" fill="#fff"/><path d="M26 8a4 4 0 00-4 4 4 4 0 00.107.871A5 5 0 0126 11a5 5 0 013.895 1.865A4 4 0 0030 12a4 4 0 00-4-4zM29.9 19.12A5 5 0 0126 21a5 5 0 01-3.893-1.871A4 4 0 0022 20a4 4 0 004 4 4 4 0 004-4 4 4 0 00-.1-.88zM39-1a3 3 0 01-3 3 3 3 0 01-3-3 3 3 0 013-3 3 3 0 013 3z" fill="#fc7f7f"/><path d="M40 0l4 7-5 3 2 2M-14 32c.416.456 1.005.75 1.62.808a2.538 2.538 0 001.743-.49c.494-.371.843-.93.96-1.536.116-.607-.001-1.255-.323-1.782-.246-.404-.6-.73-.962-1.035-.36-.306-.735-.602-1.038-.965a3.457 3.457 0 01-.658-3.104 3.457 3.457 0 012.192-2.293 3.457 3.457 0 013.13.519A3.457 3.457 0 01-6 25" fill="none" stroke="#f0f" stroke-width="1.2" paint-order="stroke fill markers"/><path d="M56.584 45.71a5.882 5.882 0 003.754 1.874 5.882 5.882 0 004.039-1.138 5.882 5.882 0 002.223-3.558 5.882 5.882 0 00-.747-4.129c-.571-.936-1.393-1.69-2.228-2.399-.836-.71-1.704-1.393-2.406-2.235-1.634-1.959-2.223-4.74-1.526-7.193.697-2.452 2.662-4.507 5.081-5.313 2.42-.807 5.224-.342 7.253 1.202 2.03 1.544 3.226 4.123 3.095 6.67" fill="none" stroke="#f0f" stroke-width="2.781" paint-order="stroke fill markers"/><g fill="#fc7f7f"><path d="M20-12a4 4 0 01-4-4 4 4 0 014-4 4 4 0 012.828 1.17l.001.001A4 4 0 0124-16V-16a4 4 0 01-4 4z"/><path d="M19.429-12.048A3.952 3.952 0 0115.477-16a3.952 3.952 0 013.952-3.952v-.001c1.048 0 2.053.416 2.794 1.157v.001a3.952 3.952 0 011.158 2.794V-16a3.952 3.952 0 01-3.952 3.952z"/><path d="M18.857-12.096a3.905 3.905 0 01-2.76-1.144h-.001a3.905 3.905 0 010-5.522 3.905 3.905 0 015.522 0A3.905 3.905 0 0122.763-16V-16a3.905 3.905 0 01-3.905 3.904z"/><path d="M18.286-12.144A3.857 3.857 0 0114.429-16a3.857 3.857 0 013.857-3.857A3.857 3.857 0 0122.143-16a3.857 3.857 0 01-3.857 3.856z"/><path d="M17.714-12.191a3.81 3.81 0 01-3.81-3.81 3.81 3.81 0 013.81-3.81 3.81 3.81 0 013.81 3.81 3.81 3.81 0 01-3.81 3.809z"/><path d="M17.143-12.239A3.762 3.762 0 0113.38-16a3.762 3.762 0 013.762-3.762A3.762 3.762 0 0120.905-16a3.762 3.762 0 01-3.762 3.761z"/><path d="M16.571-12.286A3.714 3.714 0 0112.857-16v-.001a3.714 3.714 0 013.714-3.714 3.714 3.714 0 013.714 3.714 3.714 3.714 0 01-3.714 3.714z"/><path d="M16-12.334a3.667 3.667 0 01-3.667-3.667A3.667 3.667 0 0116-19.667 3.667 3.667 0 0119.666-16 3.667 3.667 0 0116-12.334z"/><path d="M15.429-12.382A3.62 3.62 0 0111.809-16a3.619 3.619 0 013.62-3.619A3.62 3.62 0 0119.048-16a3.62 3.62 0 01-3.619 3.618z"/><path d="M14.857-12.43A3.571 3.571 0 0111.286-16a3.572 3.572 0 013.571-3.571 3.571 3.571 0 013.571 3.571c0 .948-.376 1.856-1.045 2.526h-.001a3.572 3.572 0 01-2.525 1.046z"/><path d="M14.286-12.477a3.524 3.524 0 01-3.524-3.524 3.524 3.524 0 013.524-3.524c.934 0 1.83.372 2.491 1.032v.001a3.524 3.524 0 010 4.983 3.524 3.524 0 01-2.491 1.032z"/><path d="M13.714-12.525A3.477 3.477 0 0110.238-16a3.476 3.476 0 013.476-3.476 3.476 3.476 0 013.476 3.476 3.476 3.476 0 01-3.476 3.476z"/><path d="M13.143-12.572a3.428 3.428 0 01-3.429-3.429 3.429 3.429 0 013.429-3.428A3.428 3.428 0 0116.571-16a3.429 3.429 0 01-3.429 3.428z"/><path d="M12.571-12.62A3.38 3.38 0 019.191-16a3.381 3.381 0 013.38-3.38A3.38 3.38 0 0115.952-16h.001a3.381 3.381 0 01-3.381 3.38z"/><path d="M12-12.667A3.333 3.333 0 018.667-16v-.001A3.333 3.333 0 0112-19.334a3.333 3.333 0 013.333 3.333A3.333 3.333 0 0112-12.667z"/><path d="M11.429-12.715a3.286 3.286 0 01-3.286-3.286 3.285 3.285 0 013.286-3.285A3.286 3.286 0 0114.714-16a3.286 3.286 0 01-3.286 3.285z"/><path d="M10.857-12.763A3.239 3.239 0 017.62-16a3.238 3.238 0 013.238-3.238A3.238 3.238 0 0114.096-16a3.238 3.238 0 01-3.238 3.238z"/><path d="M10.286-12.81A3.19 3.19 0 017.096-16v-.001a3.19 3.19 0 013.19-3.19 3.19 3.19 0 013.19 3.19 3.19 3.19 0 01-3.19 3.19z"/><path d="M9.714-12.858A3.143 3.143 0 016.571-16a3.143 3.143 0 013.143-3.142A3.143 3.143 0 0112.857-16h.001a3.143 3.143 0 01-3.143 3.142z"/><path d="M9.143-12.906A3.095 3.095 0 016.048-16a3.095 3.095 0 013.095-3.095 3.095 3.095 0 013.095 3.095 3.095 3.095 0 01-3.095 3.095z"/><path d="M8.571-12.953a3.048 3.048 0 01-3.048-3.048 3.048 3.048 0 013.048-3.047h.001A3.048 3.048 0 0111.619-16a3.048 3.048 0 01-3.048 3.047z"/><path d="M8-13a3 3 0 01-3-3v-.001a3 3 0 013-3 3 3 0 013 3 3 3 0 01-3 3z"/></g><circle cx="46" cy="-11" r="4" fill="#fc7f7f"/><g fill="#fc7f7f"><path d="M44 20.273a4 4 0 01-4 4 4 4 0 01-4-4 4 4 0 011.17-2.829h.001A4 4 0 0140 16.273H40a4 4 0 014 4z"/><path d="M43.908 21.364a3.91 3.91 0 01-3.91 3.91l.001-.001a3.909 3.909 0 01-3.909-3.91A3.909 3.909 0 0140 17.455c1.036 0 2.03.413 2.763 1.145l.001.001a3.91 3.91 0 011.144 2.764z"/><path d="M43.818 22.455A3.818 3.818 0 0140 26.273a3.818 3.818 0 01-3.818-3.818c0-1.013.401-1.984 1.117-2.7h.001a3.818 3.818 0 015.4 0 3.818 3.818 0 011.117 2.7z"/><path d="M43.727 23.545A3.728 3.728 0 0140 27.272a3.727 3.727 0 01-3.727-3.727h-.001a3.727 3.727 0 013.727-3.727H40a3.727 3.727 0 013.727 3.727z"/><path d="M43.636 24.636A3.636 3.636 0 0140 28.272a3.636 3.636 0 01-3.636-3.636h-.001c0-.964.383-1.889 1.065-2.57v-.001A3.636 3.636 0 0140 21H40c.964 0 1.889.383 2.57 1.065h.001a3.637 3.637 0 011.065 2.571z"/><path d="M43.545 25.727A3.545 3.545 0 0140 29.272h-.001a3.545 3.545 0 01-3.545-3.545A3.545 3.545 0 0140 22.182a3.545 3.545 0 013.545 3.545z"/><path d="M43.454 26.818A3.455 3.455 0 0140 30.272h-.001a3.455 3.455 0 01-3.454-3.454A3.455 3.455 0 0140 23.364a3.454 3.454 0 013.454 3.455z"/><path d="M43.363 27.91a3.364 3.364 0 01-3.364 3.364v-.001a3.364 3.364 0 01-3.363-3.364A3.364 3.364 0 0140 24.546a3.364 3.364 0 013.363 3.364z"/><path d="M43.272 29a3.273 3.273 0 01-3.273 3.273A3.273 3.273 0 0136.727 29 3.272 3.272 0 0140 25.728 3.272 3.272 0 0143.272 29z"/><path d="M43.181 30.09c0 .845-.335 1.654-.932 2.25v.001a3.182 3.182 0 01-4.5 0 3.182 3.182 0 010-4.5 3.181 3.181 0 014.5 0c.597.597.932 1.406.932 2.25z"/><path d="M43.09 31.182a3.09 3.09 0 01-3.09 3.09h-.001a3.09 3.09 0 01-3.09-3.09 3.09 3.09 0 013.09-3.09v-.001a3.09 3.09 0 013.09 3.09z"/><path d="M43 32.273a3 3 0 01-3 3h-.001a3 3 0 01-3-3 3 3 0 013-3 3 3 0 013 3z"/></g><circle cx="-21" cy="-12" r="4" fill="#fff" paint-order="stroke fill markers"/><path d="M13 21a4 4 0 00-2.908 1.266c1.354.237 2.521.865 3.58 1.394 1.331.666 2.491 1.173 3.324 1.174A4 4 0 0013 21zm-3.988 4.168A4 4 0 0013 29a4 4 0 002.906-1.264c-1.352-.237-2.518-.865-3.576-1.394-1.327-.664-2.485-1.17-3.318-1.174z" fill="#fff" paint-order="stroke fill markers"/><path d="M8-6a4 4 0 00-3.787 2.738A5 5 0 018-5a5 5 0 013.799 1.752A4 4 0 008-6z" fill="#fc7f7f" paint-order="stroke fill markers"/><path d="M8-8a4 4 0 00-3.787 2.738A5 5 0 018-7a5 5 0 013.799 1.752A4 4 0 008-8zM4 22a4 4 0 01-3.787-2.738A5 5 0 004 21a5 5 0 003.799-1.752A4 4 0 014 22z" fill="#fc7f7f" paint-order="stroke fill markers"/><path d="M4 24a4 4 0 01-3.787-2.738A5 5 0 004 23a5 5 0 003.799-1.752A4 4 0 014 24z" fill="#fc7f7f" paint-order="stroke fill markers"/><circle cx="-19.583" cy="-48.332" r="4" transform="rotate(116.46)" fill="#fc7f7f" paint-order="stroke fill markers"/><path d="M57.366 6.677a4 4 0 00-.764-4.61 5 5 0 01-.131 4.164 5 5 0 01-3.261 2.62 4 4 0 004.156-2.174z" fill="#fc7f7f" paint-order="stroke fill markers"/><path d="M59.156 7.568a4 4 0 00-.764-4.61 5 5 0 01-.13 4.164A5 5 0 0155 9.742a4 4 0 004.156-2.174z" fill="#fc7f7f" paint-order="stroke fill markers"/><circle cx="-4" cy="33" r="4" fill="#fc7f7f" paint-order="stroke fill markers"/><path d="M8 3a5 5 0 00-4.115 2.172c.038 0 .076-.004.115-.004 1.833 0 3.339.826 4.672 1.492 1.333.667 2.495 1.174 3.328 1.174.3 0 .632-.06.988-.18A5 5 0 008 3zM4 8.168c-.295 0-.619.06-.967.174A5 5 0 008 13a5 5 0 004.115-2.17c-.038 0-.076.004-.115.004-1.833 0-3.337-.826-4.67-1.492C5.997 8.675 4.834 8.168 4 8.168z" fill="#fff" paint-order="stroke fill markers"/><path d="M8 0a5 5 0 00-4.977 4.66A6 6 0 018 2a6 6 0 014.988 2.666A5 5 0 008 0zM8 16a5 5 0 01-4.977-4.66A6 6 0 008 14a6 6 0 004.988-2.666A5 5 0 018 16z" fill="#fc7f7f" paint-order="stroke fill markers"/><path d="M-4 12c2.667-2.667 5.333-5.333 8-5.333 2.668 0 5.334 2.667 8 2.667 2.667 0 5.333-2.667 8-5.334" fill="none" stroke="#fc7f7f" paint-order="stroke fill markers"/></svg>