<svg height="16" viewBox="0 0 16 16" width="16" xmlns="http://www.w3.org/2000/svg"><g stroke-width=".999999"><path d="m3.9999999 4.0000001a3.9999999 3.9999999 0 0 0 -3.9999999 3.9999999 3.9999999 3.9999999 0 0 0 3.9999999 4h8.0000001a3.9999999 3.9999999 0 0 0 4-4 3.9999999 3.9999999 0 0 0 -4-3.9999999zm0 .9999998h8.0000001a3 3 0 0 1 3 3.0000001 3 3 0 0 1 -3 3h-8.0000001a3 3 0 0 1 -2.9999999-3 3 3 0 0 1 2.9999999-3.0000001z" fill="#fff"/><g fill="#fc7f7f"><path d="m3.9999999 6.0000002a1.9999999 1.9999999 0 0 0 -1.9999999 2.0000001 1.9999999 1.9999999 0 0 0 1.9999999 1.9999997 1.9999999 1.9999999 0 0 0 2.0000001-1.9999997 1.9999999 1.9999999 0 0 0 -2.0000001-2.0000001zm0 .9999999a.99999996.99999996 0 0 1 1.0000003 1.0000002.99999996.99999996 0 0 1 -1.0000003.9999999.99999996.99999996 0 0 1 -.9999999-.9999999.99999996.99999996 0 0 1 .9999999-1.0000002z"/><path d="m12 6.0000002a1.9999999 1.9999999 0 0 0 -2 2.0000001 1.9999999 1.9999999 0 0 0 2 1.9999997 1.9999999 1.9999999 0 0 0 2-1.9999997 1.9999999 1.9999999 0 0 0 -2-2.0000001zm0 .9999999a.99999996.99999996 0 0 1 1 1.0000002.99999996.99999996 0 0 1 -1 .9999999.99999996.99999996 0 0 1 -1-.9999999.99999996.99999996 0 0 1 1-1.0000002z"/><path d="m4.0000003 3.0000002v-.9999999a3.9999999 3.9999999 0 0 0 -3.79882825 2.7558592 4.9999998 4.9999998 0 0 1 3.79882825-1.7558593zm.9999999-1.9999999v1h-.9999999v.9999999h3.9999999z"/><path d="m12 13.000001v.999999a3.9999999 3.9999999 0 0 0 3.798828-2.755859 4.9999998 4.9999998 0 0 1 -3.798828 1.75586zm-1 1.999999v-1h1v-1h-3.9999998z"/></g></g></svg>