<svg width="16" height="16" xmlns="http://www.w3.org/2000/svg"><path d="M10 16l-3-2h4a6 6 0 004.67-2.252A5 5 0 0111 15h-1zM10 0L7 2h4a6 6 0 014.67 2.252A5 5 0 0011 1h-1z" fill="#fc7f7f"/><circle cx="17" cy="22" r="5" fill="#fc7f7f"/><circle cx="17" cy="21" r="4" fill="#fff"/><path d="M-20.748 3.33A5 5 0 00-24 8a5 5 0 003.252 4.67A6 6 0 01-23 8a6 6 0 012.252-4.67z" fill="#fc7f7f"/><path d="M-22.748 3.33A5 5 0 00-26 8a5 5 0 003.252 4.67A6 6 0 01-25 8a6 6 0 012.252-4.67z" fill="#fc7f7f"/><path d="M-24.748 3.33A5 5 0 00-28 8a5 5 0 003.252 4.67A6 6 0 01-27 8a6 6 0 012.252-4.67z" fill="#fc7f7f"/><path d="M11 3a5 5 0 00-5 5 5 5 0 005 5 5 5 0 005-5 5 5 0 00-5-5zm0 1a4 4 0 014 4 4 4 0 01-4 4 4 4 0 01-4-4 4 4 0 014-4z" fill="#fff" paint-order="stroke fill markers"/><path d="M0 9V7h3V5l3 3-3 3V9" fill="#fc7f7f"/><path d="M9 5v6l.133-.066.691-5.522zm1.766.883l-.567 4.517 1.069-.533.437-3.513zm1.88.941l-.312 2.51 1.066-.533.188-1.506zm1.883.942l-.062.502L15 8z" fill="#fc7f7f" paint-order="stroke fill markers"/></svg>