<svg height="16" viewBox="0 0 16 16" width="16" xmlns="http://www.w3.org/2000/svg"><g stroke-width=".999999"><path d="m3.9999999 4.0000001a3.9999999 3.9999999 0 0 0 -3.9999999 3.9999999 3.9999999 3.9999999 0 0 0 3.9999999 4h8.0000001a3.9999999 3.9999999 0 0 0 4-4 3.9999999 3.9999999 0 0 0 -4-3.9999999zm0 .9999998h8.0000001a3 3 0 0 1 3 3.0000001 3 3 0 0 1 -3 3h-8.0000001a3 3 0 0 1 -2.9999999-3 3 3 0 0 1 2.9999999-3.0000001z" fill="#fff"/><g fill="#fc7f7f"><path d="m9.0000001 6.0000002 2.9999999 2.0000001-2.9999999 1.9999997v-.9999998h-5.0000002v-.9999999-1.0000002h5.0000002z"/><path d="m12 2.9999999v-.9999997a3.9999999 3.9999999 0 0 1 3.798828 2.7558593 4.9999998 4.9999998 0 0 0 -3.798828-1.7558596zm-1-1.9999998v1.0000001h1v1.0000001h-3.9999998z"/><path d="m12 13v1a3.9999999 3.9999999 0 0 0 3.798829-2.755859 4.9999998 4.9999998 0 0 1 -3.798829 1.755859zm-1 2v-1h1v-1h-3.9999998z"/></g></g></svg>