<svg width="16" height="16" xmlns="http://www.w3.org/2000/svg"><path d="M4 4a4 4 0 00-4 4 4 4 0 004 4h8a4 4 0 004-4 4 4 0 00-4-4zm0 1h8a3 3 0 013 3 3 3 0 01-3 3H4a3 3 0 01-3-3 3 3 0 013-3z" fill="#fff"/><path d="M26-3a2 2 0 00-2 2 2 2 0 002 2 2 2 0 002-2 2 2 0 00-2-2zm0 1a1 1 0 011 1 1 1 0 01-1 1 1 1 0 01-1-1 1 1 0 011-1z" fill="#fc7f7f"/><path d="M31-3a2 2 0 00-2 2 2 2 0 002 2 2 2 0 002-2 2 2 0 00-2-2zm0 1a1 1 0 011 1 1 1 0 01-1 1 1 1 0 01-1-1 1 1 0 011-1z" fill="#fff"/><path d="M4 3V2A4 4 0 00.201 4.756 5 5 0 014 3zm1-2v1H4v1h4zM12 13v1a4 4 0 003.799-2.756A5 5 0 0112 13zm-1 2v-1h1v-1H8z" fill="#fc7f7f"/><path d="M13-13a3 3 0 00-3 3 3 3 0 003 3 3 3 0 003-3 3 3 0 00-3-3zm0 1a2 2 0 012 2 2 2 0 01-2 2 2 2 0 01-2-2 2 2 0 012-2zM4-10a3 3 0 00-3 3 3 3 0 003 3 3 3 0 003-3 3 3 0 00-3-3zm0 1a2 2 0 012 2 2 2 0 01-2 2 2 2 0 01-2-2 2 2 0 012-2zM20-11a3 3 0 00-3 3 3 3 0 003 3h8a3 3 0 003-3 3 3 0 00-3-3zM29 8a3 3 0 00-3 3 3 3 0 003 3h8a3 3 0 003-3 3 3 0 00-3-3zm0 1a2 2 0 012 2 2 2 0 01-2 2 2 2 0 01-2-2 2 2 0 012-2zm8 0a2 2 0 012 2 2 2 0 01-2 2 2 2 0 01-2-2 2 2 0 012-2zm-8 1a1 1 0 00-1 1 1 1 0 001 1 1 1 0 001-1 1 1 0 00-1-1zm8 0a1 1 0 00-1 1 1 1 0 001 1 1 1 0 001-1 1 1 0 00-1-1zM29 1a3 3 0 00-3 3 3 3 0 003 3h8a3 3 0 003-3 3 3 0 00-3-3zm0 1a2 2 0 012 2 2 2 0 012-2 2 2 0 012 2 2 2 0 012-2 2 2 0 012 2 2 2 0 01-2 2 2 2 0 01-2-2 2 2 0 01-2 2 2 2 0 01-2-2 2 2 0 01-2 2 2 2 0 01-2-2 2 2 0 012-2zm0 1a1 1 0 00-1 1 1 1 0 001 1 1 1 0 001-1 1 1 0 00-1-1zm4 0a1 1 0 00-1 1 1 1 0 001 1 1 1 0 001-1 1 1 0 00-1-1zm4 0a1 1 0 00-1 1 1 1 0 001 1 1 1 0 001-1 1 1 0 00-1-1z" fill="#fc7f7f" paint-order="stroke fill markers"/><path d="M21-3a2 2 0 00-2 2 2 2 0 002 2 2 2 0 002-2 2 2 0 00-2-2zm0 1a1 1 0 011 1 1 1 0 01-1 1 1 1 0 01-1-1 1 1 0 011-1z" fill="#fc7f7f"/><circle cx="12" cy="8" r="2" fill="#fc7f7f" paint-order="stroke fill markers"/><circle cx="4" cy="8" r="2" fill="#fc7f7f" paint-order="stroke fill markers"/></svg>