<svg height="16" viewBox="0 0 16 16" width="16" xmlns="http://www.w3.org/2000/svg"><g stroke-width=".999999"><g fill="#fc7f7f"><path d="m4 3a3.9999999 3.9999999 0 0 0 -4 4 3.9999999 3.9999999 0 0 0 .04296875.5 3.9999999 3.9999999 0 0 0 -.04296875.5 3.9999999 3.9999999 0 0 0 4 4h8a3.9999999 3.9999999 0 0 0 4-4 3.9999999 3.9999999 0 0 0 -.03125-.4980469 3.9999999 3.9999999 0 0 0 0-.0019531 3.9999999 3.9999999 0 0 0 0-.0019531 3.9999999 3.9999999 0 0 0 .03125-.4980469 3.9999999 3.9999999 0 0 0 -4-4zm0 2h8a3 3 0 0 1 2.953125 2.4785156 3 3 0 0 1 -2.953125 2.5214844h-8a3 3 0 0 1 -2.9492188-2.5 3 3 0 0 1 2.9492188-2.5z"/><path d="m4 5a1.9999999 1.9999999 0 0 0 -2 2v2a1.9999999 1.9999999 0 0 0 2 2 1.9999999 1.9999999 0 0 0 2-2v-2a1.9999999 1.9999999 0 0 0 -2-2z"/><path d="m4.0000001 2v-.9999999a3.9999999 3.9999999 0 0 0 -3.79882825 2.7558592 4.9999998 4.9999998 0 0 1 3.79882825-1.7558593zm.9999999-1.9999999v1h-.9999999v.9999999h3.9999999z"/><path d="m12 14.000001v.999999a3.9999999 3.9999999 0 0 0 3.798828-2.755859 4.9999998 4.9999998 0 0 1 -3.798828 1.75586zm-1 1.999999v-1h1v-1h-4z"/></g><path d="m4 7.0000002a1.9999999 1.9999999 0 0 0 -2 2.0000001 1.9999999 1.9999999 0 0 0 2 1.9999997 1.9999999 1.9999999 0 0 0 2-1.9999997 1.9999999 1.9999999 0 0 0 -2-2.0000001zm0 .9999999a.99999996.99999996 0 0 1 1 1.0000002.99999996.99999996 0 0 1 -1 .9999997.99999996.99999996 0 0 1 -1-.9999997.99999996.99999996 0 0 1 1-1.0000002z" fill="#fff"/><path d="m12 4.9999997a1.9999999 1.9999999 0 0 0 -2 2v2a1.9999999 1.9999999 0 0 0 2 2.0000003 1.9999999 1.9999999 0 0 0 2-2.0000003v-2a1.9999999 1.9999999 0 0 0 -2-2z" fill="#fc7f7f"/><g fill="#fff"><path d="m12 6.9999999a1.9999999 1.9999999 0 0 0 -2 2.0000001 1.9999999 1.9999999 0 0 0 2 2 1.9999999 1.9999999 0 0 0 2-2 1.9999999 1.9999999 0 0 0 -2-2.0000001zm0 .9999999a.99999996.99999996 0 0 1 1 1.0000002.99999996.99999996 0 0 1 -1 .9999997.99999996.99999996 0 0 1 -1-.9999997.99999996.99999996 0 0 1 1-1.0000002z"/><path d="m4 5.0000001a3.9999999 3.9999999 0 0 0 -4 3.9999999 3.9999999 3.9999999 0 0 0 4 4h8a3.9999999 3.9999999 0 0 0 4-4 3.9999999 3.9999999 0 0 0 -4-3.9999999zm0 .9999998h8a3 3 0 0 1 3 3.0000001 3 3 0 0 1 -3 3h-8a3 3 0 0 1 -3-3 3 3 0 0 1 3-3.0000001z"/></g></g></svg>