<svg height="16" viewBox="0 0 16 16" width="16" xmlns="http://www.w3.org/2000/svg"><g fill="#fc7f7f"><path d="m10 16-3-2h4a6 6 0 0 0 4.669922-2.251953 5 5 0 0 1 -4.669922 3.251953h-1z" stroke-width=".999999"/><path d="m10 0-3 2h4a6 6 0 0 1 4.669922 2.251953 5 5 0 0 0 -4.669922-3.251953h-1z" stroke-width=".999999"/><circle cx="11" cy="8" r="5"/></g><circle cx="11" cy="7" fill="#fff" r="4"/><g fill="#fc7f7f"><path d="m7.251953 3.330078a5 5 0 0 0 -3.251953 4.669922 5 5 0 0 0 3.251953 4.669922 6 6 0 0 1 -2.251953-4.669922 6 6 0 0 1 2.251953-4.669922z"/><path d="m5.251953 3.330078a5 5 0 0 0 -3.251953 4.669922 5 5 0 0 0 3.251953 4.669922 6 6 0 0 1 -2.251953-4.669922 6 6 0 0 1 2.251953-4.669922z"/><path d="m3.251953 3.330078a5 5 0 0 0 -3.251953 4.669922 5 5 0 0 0 3.251953 4.669922 6 6 0 0 1 -2.251953-4.669922 6 6 0 0 1 2.251953-4.669922z"/></g></svg>