<svg height="16" width="16" xmlns="http://www.w3.org/2000/svg"><path d="M10 16v-1h5v-1H7zM35 .5a4 4 0 00-4 4v3a4 4 0 004 4 4 4 0 004-4v-3a4 4 0 00-4-4z" fill="#fc7f7f"/><path d="M31.734.715A4 4 0 0029 4.5v5a4 4 0 002.734 3.785A5 5 0 0130 9.5v-5A5 5 0 0131.734.715z" fill="#fc7f7f"/><path d="M29.734.715A4 4 0 0027 4.5v5a4 4 0 002.734 3.785A5 5 0 0128 9.5v-5A5 5 0 0129.734.715z" fill="#fc7f7f"/><path d="M27.734.715A4 4 0 0025 4.5v5a4 4 0 002.734 3.785A5 5 0 0126 9.5v-5A5 5 0 0127.734.715zM45-20a4 4 0 00-4 4v5a4 4 0 004 4 4 4 0 004-4v-5a4 4 0 00-4-4z" fill="#fc7f7f"/><path d="M41.213-9.738A4 4 0 0045-7a4 4 0 003.787-2.738A5 5 0 0145-8a5 5 0 01-3.787-1.738z" fill="#fff"/><circle cx="54.5" cy="3.5" r=".5" fill="#fff" stroke="#fff" stroke-width="2" stroke-linecap="round" stroke-linejoin="round"/><path d="M54 6v2" fill="#fff" stroke="#fff" stroke-width="2" stroke-linecap="round" stroke-linejoin="round"/><path d="M54 8l2 3M54 8l-2 3M54 6l1 1h1M54 6h-1l-1 1" fill="none" stroke="#fff" stroke-width="2" stroke-linecap="round" stroke-linejoin="round"/><circle cx="64.5" cy="3.5" r=".5" fill="#fff" stroke="#fff" stroke-width="1.5" stroke-linecap="round" stroke-linejoin="round"/><path d="M64 6v2" fill="#fff" stroke="#fff" stroke-width="1.5" stroke-linecap="round" stroke-linejoin="round"/><path d="M64 8l2 3M64 8l-2 3M64 6l1 1h1M64 6h-1l-1 1" fill="none" stroke="#fff" stroke-width="1.5" stroke-linecap="round" stroke-linejoin="round"/><circle cx="74.5" cy="4" r=".5" fill="#fff" stroke="#fff" stroke-width="1.5" stroke-linecap="round" stroke-linejoin="round"/><path d="M74 6l-1 2" fill="#fff" stroke="#fff" stroke-width="1.5" stroke-linecap="round" stroke-linejoin="round"/><path d="M73 8l2 3M73 8l-2 3M74 6l1 1h1M74 6h-2l-1 1" fill="none" stroke="#fff" stroke-width="1.5" stroke-linecap="round" stroke-linejoin="round"/><g fill="#fc7f7f" color="#000"><path d="M12.625 2.584a.5.5 0 01-.5.5.5.5 0 01-.5-.5.5.5 0 01.5-.5.5.5 0 01.5.5z"/><path d="M12.125 1.334c-.681 0-1.25.569-1.25 1.25s.569 1.25 1.25 1.25 1.25-.569 1.25-1.25-.569-1.25-1.25-1.25zm0 1c.13 0 .25.12.25.25s-.12.25-.25.25-.25-.12-.25-.25.12-.25.25-.25z"/></g><g fill="#fc7f7f" color="#000"><path d="M11.625 4.584l-1 2M11.389 3.873a.75.75 0 00-.434.375l-1 2a.75.75 0 00.334 1.006.75.75 0 001.006-.334l1-2a.75.75 0 00-.334-1.006.75.75 0 00-.572-.041z"/></g><path d="M10.771 5.848a.75.75 0 00-.562.111A.75.75 0 0010 7l2 3a.75.75 0 001.041.209.75.75 0 00.209-1.041l-2-3a.75.75 0 00-.479-.32z" color="#000" fill="#fc7f7f"/><path d="M10.479 5.848a.75.75 0 00-.479.32l-2 3a.75.75 0 00.209 1.041A.75.75 0 009.25 10l2-3a.75.75 0 00-.209-1.041.75.75 0 00-.562-.111zM11.094 4.053a.75.75 0 000 1.062l1 1a.75.75 0 00.531.219h1a.75.75 0 00.75-.75.75.75 0 00-.75-.75h-.69l-.779-.781a.75.75 0 00-1.062 0z" color="#000" fill="#fc7f7f"/><path style="-inkscape-stroke:none" d="M9.625 3.834a.75.75 0 00-.531.219l-1 1a.75.75 0 000 1.062.75.75 0 001.062 0l.78-.781h1.689a.75.75 0 00.75-.75.75.75 0 00-.75-.75z" color="#000" fill="#fc7f7f"/><circle cx="46.5" cy="3.5" r=".5" fill="#fff" stroke="#fff" stroke-width="2" stroke-linecap="round" stroke-linejoin="round"/><path d="M46 6v2" fill="#fff" stroke="#fff" stroke-width="2" stroke-linecap="round" stroke-linejoin="round"/><path d="M46 6l1 1h1M46 6h-1l-1 1M47 11V9l-1-1-1 2h-1" fill="none" stroke="#fff" stroke-width="2" stroke-linecap="round" stroke-linejoin="round"/><path d="M0 7V5h3V3l3 3-3 3V7M11 0a4 4 0 00-4 4v5a4 4 0 004 4 4 4 0 004-4V4a4 4 0 00-4-4zm0 1a3 3 0 013 3v5a3 3 0 01-3 3 3 3 0 01-3-3V4a3 3 0 013-3z" fill="#fc7f7f"/><path d="M7.213 10.262A4 4 0 0011 13a4 4 0 003.787-2.738A5 5 0 0111 12a5 5 0 01-3.787-1.738z" fill="#fff"/></svg>